<svg width="21" height="20" viewBox="0 0 21 20" fill="none" xmlns="http://www.w3.org/2000/svg">
<path fill-rule="evenodd" clip-rule="evenodd" d="M0.939819 6C0.939819 2.68629 3.62611 0 6.93982 0H15C18.3137 0 21 2.68629 21 6V14C21 17.3137 18.3137 20 15 20H6.93982C3.62611 20 0.939819 17.3137 0.939819 14V6ZM10.9699 5C8.20034 5 5.95486 7.23875 5.95486 10C5.95486 12.7612 8.20034 15 10.9699 15C13.7394 15 15.9849 12.7612 15.9849 10C15.9849 7.23875 13.7394 5 10.9699 5ZM10.9699 13.125C9.24221 13.125 7.8355 11.7225 7.8355 10C7.8355 8.27625 9.24221 6.875 10.9699 6.875C12.6976 6.875 14.1043 8.27625 14.1043 10C14.1043 11.7225 12.6976 13.125 10.9699 13.125ZM17.0294 4.62499C17.0294 4.99294 16.7302 5.29123 16.3612 5.29123C15.9921 5.29123 15.6929 4.99294 15.6929 4.62499C15.6929 4.25703 15.9921 3.95874 16.3612 3.95874C16.7302 3.95874 17.0294 4.25703 17.0294 4.62499Z" fill="#1890FF"/>
</svg>
